<svg xmlns="http://www.w3.org/2000/svg" xmlns:xlink="http://www.w3.org/1999/xlink" width="500" zoomAndPan="magnify" viewBox="0 0 375 374.999991" height="500" preserveAspectRatio="xMidYMid meet" version="1.0"><defs><clipPath id="6bb757706c"><path d="M 22.5 132 L 43 132 L 43 145 L 22.5 145 Z M 22.5 132 " clip-rule="nonzero"/></clipPath><clipPath id="c84a006ca9"><path d="M 341.007812 166.195312 L 352.410156 166.195312 L 352.410156 175.917969 L 341.007812 175.917969 Z M 341.007812 166.195312 " clip-rule="nonzero"/></clipPath></defs><path fill="#12372a" d="M 298.039062 319.628906 C 290.699219 320.394531 283.046875 320.671875 282.132812 318.125 C 279.585938 311.039062 270.644531 308.949219 271.582031 308.0625 C 271.953125 307.710938 275.128906 307.886719 280.402344 308.847656 C 283 309.316406 290.742188 311.828125 293.3125 312.371094 C 294.628906 312.652344 295.726562 313.105469 296.667969 313.585938 C 300.449219 315.515625 306.953125 316.113281 311.941406 317.308594 C 314.644531 317.957031 316.890625 319.476562 318.042969 319.851562 C 316.710938 318.234375 314.671875 317.664062 313.582031 317.25 C 311.640625 316.507812 309.949219 315.78125 308.175781 315.46875 C 305.222656 314.957031 303.375 314.789062 301.222656 313.726562 C 296.023438 311.167969 293.109375 309.960938 288.070312 309.183594 C 288.285156 308.632812 297.132812 307.898438 300.910156 308.058594 C 304.863281 308.214844 311.316406 309.207031 316.097656 308.941406 C 317.824219 308.847656 319.296875 308.546875 320.925781 308.371094 C 322.554688 308.199219 324.511719 308.667969 326.304688 309.070312 C 324.746094 308.128906 321.558594 307.792969 319.109375 307.863281 C 316.664062 307.933594 314.421875 308.28125 311.828125 308.136719 C 308.035156 307.921875 304.316406 306.695312 300.5 306.433594 C 295.496094 306.089844 291.644531 307.5 286.636719 307.183594 C 283.84375 307.007812 281.234375 306.175781 278.425781 305.792969 C 271.417969 304.832031 259.796875 306.3125 249.691406 305.738281 C 244.46875 305.433594 238.511719 305.535156 234.0625 304.242188 C 230.460938 303.199219 223.058594 298.570312 222.667969 297.945312 C 221.558594 296.167969 226.597656 294.859375 230.460938 295.246094 C 234.328125 295.636719 237.25 296.148438 241.121094 296.523438 C 245.8125 296.972656 250.824219 296.816406 255.519531 296.597656 C 259.375 296.414062 267.421875 296.132812 271.304688 296.453125 C 278.0625 297 280.707031 298.105469 287.457031 298.683594 C 283.648438 297.847656 279.773438 297.085938 276.023438 296.199219 C 271.503906 295.121094 265.136719 295.28125 262.527344 295.289062 C 236.261719 295.425781 237.449219 290.953125 221.777344 289.976562 C 214.511719 289.539062 201.800781 289.386719 194.511719 289.617188 C 189.730469 289.761719 184.941406 290.824219 180.152344 290.871094 C 177.679688 290.890625 175.210938 290.902344 172.738281 290.921875 C 171.546875 290.925781 170.074219 289.230469 169.59375 289.675781 C 167.335938 289.441406 161.503906 290.574219 161.214844 290.601562 C 157.921875 290.855469 154.203125 290.726562 151.0625 291.226562 C 148.523438 291.628906 143.9375 292.738281 142.480469 293.875 C 138.941406 295.390625 135.492188 297.09375 131.042969 297.863281 C 129.171875 298.1875 127.183594 298.335938 125.375 298.738281 C 121.386719 299.625 118.867188 301.589844 115.082031 302.679688 C 111.371094 303.742188 106.898438 303.851562 102.726562 303.738281 C 98.558594 303.628906 94.386719 303.332031 90.195312 303.695312 C 86 304.054688 81.632812 305.25 80.050781 307.121094 C 83.839844 304.816406 90.910156 304.566406 96.734375 304.933594 C 102.554688 305.292969 108.800781 305.988281 114.304688 304.710938 C 118.382812 303.761719 121.355469 301.84375 125.609375 301.117188 C 127.113281 300.863281 128.996094 300.820312 129.945312 301.378906 C 130.804688 301.882812 130.332031 302.625 130.03125 303.28125 C 128.53125 306.492188 125.585938 306.925781 122.375 308.40625 C 120.0625 309.472656 117.539062 309.941406 114.671875 310.640625 C 109.878906 311.800781 104.476562 312.582031 99.253906 313.054688 C 94.035156 313.523438 88.546875 314.316406 84.832031 316.175781 C 82.691406 317.25 81.320312 318.589844 79.324219 319.714844 C 74.742188 322.292969 68.121094 324.085938 66.113281 327.195312 C 64.976562 328.953125 64.84375 330.484375 64.75 332.273438 C 64.660156 334.011719 63.347656 335.777344 61.058594 337.238281 C 63.675781 335.5 66.050781 334.277344 67.097656 332.261719 C 68.257812 330.027344 67.558594 327.816406 70.757812 325.972656 C 73.511719 324.386719 78.394531 322.097656 81.449219 320.613281 C 83.378906 319.679688 84.691406 319.03125 86.46875 318.027344 C 90.464844 315.777344 95.347656 315.4375 101.269531 314.660156 C 107.183594 313.882812 114.453125 312.566406 120.144531 311.4375 C 125.835938 310.304688 131.605469 307.609375 133.355469 304.84375 C 134.15625 303.578125 133.789062 302.898438 134.6875 301.644531 C 136.292969 299.40625 140.570312 297.757812 145.023438 296.640625 C 149.480469 295.527344 151.574219 294.375 159.242188 294.292969 C 160.882812 294.269531 169.382812 293.480469 172.921875 295.566406 C 174.835938 296.6875 172.78125 298.058594 171.179688 299.332031 C 167.527344 302.242188 160.761719 303.910156 154.765625 305.8125 C 148.761719 307.703125 142.753906 310.378906 142.382812 313.714844 C 142.167969 315.613281 142.460938 317.386719 144.355469 319.273438 C 146.050781 320.964844 148.101562 322.382812 141.683594 323.5 C 138.289062 324.097656 132.4375 323.835938 129.140625 324.566406 C 125.644531 325.339844 124.035156 327.003906 121.199219 328.253906 C 117.308594 329.964844 112.015625 329.988281 106.824219 330.324219 C 98.890625 330.851562 91.804688 333.785156 89.136719 337.292969 C 90.726562 335.878906 94.1875 335.019531 97.039062 334.027344 C 103.476562 331.785156 111.871094 332.464844 116.929688 331.683594 C 115.050781 334.277344 117.746094 338.558594 119.054688 341.164062 C 120.5 344.039062 117.957031 344.074219 117.429688 347.667969 C 117.054688 350.183594 119.277344 353.101562 124.289062 353.9375 C 121.226562 352.796875 120.511719 350.722656 120.925781 348.863281 C 121.335938 347.003906 122.644531 345.175781 122.757812 343.3125 C 123 339.464844 117.472656 334.980469 122.160156 331.730469 C 125.609375 329.339844 126.539062 327.46875 132.03125 326.5 C 140.125 325.074219 148.679688 325.984375 151.347656 322.761719 C 152.511719 321.351562 150.199219 319.40625 149.578125 317.949219 C 145.984375 309.496094 162.5 307.5 163.789062 308.085938 C 165.613281 308.902344 161.546875 311.5625 164.402344 314.003906 C 166.328125 315.652344 171.050781 316.378906 172.113281 318.203125 C 173.101562 319.898438 169.914062 321.507812 168.972656 323.234375 C 167.015625 326.816406 174.925781 330.425781 172.230469 333.90625 C 169.65625 337.242188 160.097656 337.5625 153.617188 339.398438 C 143.976562 342.140625 142.152344 349.386719 150.195312 352.886719 C 144.773438 348.136719 146.902344 342.550781 155.980469 341.097656 C 159.972656 340.457031 164.734375 339.875 168.359375 338.855469 C 171.910156 337.855469 174.359375 334.78125 178.445312 334.6875 C 181.496094 334.617188 183.738281 338.234375 185.207031 339.484375 C 186.679688 340.734375 187.417969 342.160156 188.957031 343.390625 C 191.46875 345.40625 196.214844 347.140625 195.570312 349.476562 C 195.25 350.636719 194.828125 351.480469 194.785156 352.875 C 198.054688 350.71875 198.34375 347.660156 195.480469 345.417969 C 193.734375 344.050781 190.929688 342.96875 189.957031 341.429688 C 189.3125 340.421875 186.886719 336.28125 185.914062 335.339844 C 182.375 331.910156 178.292969 332.632812 175.695312 329.027344 C 170.347656 321.609375 181.75 321.917969 179.28125 318.546875 C 177.101562 315.5625 167.945312 314.007812 168.824219 310.863281 C 169.425781 308.691406 174.621094 307.484375 176.789062 305.539062 C 177.730469 304.6875 178.070312 303.71875 179.042969 302.875 C 180.714844 301.433594 184.324219 300.539062 187.765625 300.71875 C 191.210938 300.898438 192.066406 302.71875 192.964844 304.292969 C 194.9375 307.75 189.308594 310.683594 191.371094 314.128906 C 192.015625 315.199219 193.597656 316.175781 193.445312 317.292969 C 193.300781 318.34375 191.65625 319.191406 190.585938 320.121094 C 188.125 322.25 188.851562 325.082031 192.300781 326.847656 C 195.8125 328.648438 201.269531 329.203125 205.871094 330.339844 C 210.472656 331.480469 214.691406 333.949219 212.625 336.195312 C 215.449219 334.292969 215.023438 331.476562 211.65625 329.785156 C 208.851562 328.378906 204.652344 327.847656 201.042969 326.933594 C 197.433594 326.023438 194.015625 324.273438 194.972656 322.386719 C 195.8125 320.738281 199.703125 319.664062 200.109375 317.988281 C 200.28125 317.269531 200.3125 316.496094 199.703125 315.832031 C 194.546875 310.207031 201.125 305.3125 215.734375 311.199219 C 220.601562 313.160156 216.5625 316.707031 220.378906 318.101562 C 224.757812 319.691406 236.214844 317.65625 238.734375 319.988281 C 241.105469 322.167969 232.683594 326.230469 232.90625 328.675781 C 233.132812 331.125 238.046875 332.976562 239.152344 335.378906 C 240.695312 338.703125 234.628906 341.703125 233.421875 345.066406 C 232.378906 347.96875 235.402344 351.09375 240.726562 352.625 C 235.972656 350.949219 236.230469 347.527344 238.179688 344.890625 C 240.132812 342.246094 243.335938 339.679688 242.929688 336.894531 C 242.558594 334.359375 239.222656 332.105469 238.199219 329.605469 C 237.167969 327.101562 240.375 324.5 245.746094 324.15625 C 258.71875 323.339844 253.835938 330.363281 259.398438 333.105469 C 264.609375 335.675781 277.992188 337.335938 277.976562 342.109375 C 277.976562 344.273438 277.5 347.070312 273.464844 348.167969 C 281.441406 346.300781 283.9375 340.875 278.277344 337.601562 C 273.589844 334.894531 258.898438 331.75 261.296875 329.144531 C 260.519531 329.992188 274.53125 330.714844 285.941406 329.40625 C 292.65625 328.632812 299.683594 330.632812 301.5625 333.710938 C 299.984375 331.125 296.554688 329.101562 291.648438 328.414062 C 286.738281 327.730469 283.074219 328.277344 278.011719 328.367188 C 272.949219 328.449219 266.007812 328.800781 262.433594 327.085938 C 259.808594 325.824219 259.941406 323.269531 256.792969 322.292969 C 253.902344 321.390625 249.929688 321.472656 247.28125 320.421875 C 245.207031 319.601562 244.421875 318.277344 242.660156 317.308594 C 237.386719 314.414062 224.492188 318.519531 224.152344 314.769531 C 223.722656 309.984375 217.4375 307.507812 211.152344 306.648438 C 207.019531 306.082031 202.832031 305.148438 200.613281 303.417969 C 198.394531 301.6875 198.828125 299.117188 202.386719 297.988281 C 205.964844 296.859375 211.015625 297.597656 214.257812 298.957031 C 217.496094 300.3125 219.570312 302.167969 222.328125 303.746094 C 228.914062 307.507812 241.175781 308.871094 251.355469 308.410156 C 254.339844 308.242188 272.519531 307.722656 276.835938 316.828125 C 277.917969 319.109375 280.160156 321.628906 284.785156 322.636719 C 290.324219 323.828125 297.570312 320.460938 303 321.804688 C 307.484375 322.90625 308.273438 327.042969 310.9375 329.003906 C 313.925781 331.195312 319.75 331.851562 324.8125 333.023438 C 317.101562 331.242188 313.164062 328.355469 310.691406 325.726562 C 307.878906 322.746094 306.296875 318.777344 298.039062 319.628906 " fill-opacity="1" fill-rule="nonzero"/><path fill="#12372a" d="M 113.9375 330.734375 C 119.769531 331.929688 125.84375 332.421875 126.566406 329.03125 C 128.574219 319.601562 135.675781 317 134.929688 315.792969 C 134.636719 315.316406 132.117188 315.492188 127.925781 316.65625 C 125.867188 317.230469 119.71875 320.417969 117.679688 321.085938 C 116.632812 321.429688 115.761719 322.011719 115.015625 322.632812 C 112.015625 325.136719 106.84375 325.777344 102.882812 327.253906 C 100.738281 328.054688 98.953125 330.050781 98.039062 330.527344 C 99.09375 328.371094 100.710938 327.664062 101.578125 327.128906 C 103.121094 326.175781 104.460938 325.238281 105.871094 324.871094 C 108.214844 324.257812 109.683594 324.082031 111.394531 322.707031 C 115.519531 319.390625 117.832031 317.851562 121.835938 316.9375 C 121.664062 316.195312 114.632812 314.980469 111.628906 315.074219 C 108.484375 315.164062 103.355469 316.296875 99.546875 315.769531 C 98.171875 315.582031 97 315.117188 95.703125 314.820312 C 94.402344 314.523438 92.847656 315.085938 91.417969 315.566406 C 92.660156 314.339844 95.199219 314.003906 97.144531 314.199219 C 99.09375 314.386719 100.882812 314.933594 102.941406 314.824219 C 105.957031 314.664062 108.917969 313.125 111.949219 312.894531 C 115.925781 312.585938 118.988281 314.589844 122.972656 314.289062 C 125.191406 314.121094 127.265625 313.070312 129.496094 312.625 C 135.0625 311.511719 144.285156 313.699219 152.304688 313.050781 C 156.445312 312.71875 161.171875 312.90625 164.703125 311.242188 C 167.550781 309.894531 173.429688 303.855469 173.742188 303.046875 C 174.625 300.722656 170.625 298.96875 167.558594 299.4375 C 164.492188 299.90625 162.175781 300.546875 159.101562 300.992188 C 155.382812 301.527344 151.402344 301.238281 147.675781 300.863281 C 144.613281 300.550781 138.222656 300.007812 135.140625 300.332031 C 129.769531 300.890625 127.671875 302.292969 122.304688 302.871094 C 125.332031 301.867188 128.410156 300.957031 131.390625 299.867188 C 134.980469 298.554688 140.039062 298.925781 142.113281 298.992188 C 162.964844 299.664062 162.015625 293.6875 174.457031 292.585938 C 180.21875 292.085938 190.296875 291.9375 196.078125 292.21875 C 199.867188 292.398438 203.664062 293.765625 207.457031 293.792969 C 209.414062 293.804688 211.375 293.804688 213.335938 293.800781 C 214.28125 293.796875 215.453125 291.582031 215.832031 292.148438 C 217.621094 291.828125 221.3125 293.367188 221.78125 293.257812 C 222.003906 293.207031 222.242188 293.234375 222.46875 293.257812 C 225.078125 293.550781 228.027344 293.332031 230.515625 293.925781 C 232.527344 294.40625 236.160156 295.757812 237.308594 297.203125 C 240.109375 299.09375 242.839844 301.230469 246.363281 302.125 C 247.847656 302.5 249.421875 302.640625 250.855469 303.117188 C 254.011719 304.164062 256.003906 306.640625 259 307.9375 C 261.933594 309.210938 265.484375 309.210938 268.792969 308.933594 C 272.097656 308.648438 275.410156 308.121094 278.734375 308.4375 C 282.058594 308.75 285.519531 310.128906 286.761719 312.484375 C 283.773438 309.652344 278.160156 309.597656 273.542969 310.273438 C 268.917969 310.941406 263.964844 312.039062 259.609375 310.546875 C 256.378906 309.4375 254.027344 307.035156 250.660156 306.207031 C 249.46875 305.914062 247.972656 305.90625 247.222656 306.648438 C 246.539062 307.320312 246.910156 308.273438 247.148438 309.117188 C 248.324219 313.238281 250.65625 313.730469 253.195312 315.554688 C 255.023438 316.875 257.019531 317.414062 259.289062 318.230469 C 263.085938 319.601562 267.367188 320.441406 271.503906 320.878906 C 275.640625 321.308594 279.992188 322.136719 282.929688 324.410156 C 284.621094 325.71875 285.703125 327.398438 287.28125 328.777344 C 290.902344 331.945312 296.148438 334 297.726562 337.945312 C 298.621094 340.179688 298.714844 342.164062 298.78125 344.480469 C 298.847656 346.730469 299.875 348.96875 301.683594 350.773438 C 299.617188 348.628906 297.742188 347.140625 296.914062 344.5625 C 296.007812 341.710938 296.578125 338.820312 294.046875 336.554688 C 291.871094 334.605469 288.011719 331.832031 285.59375 330.027344 C 284.066406 328.890625 283.027344 328.09375 281.621094 326.867188 C 278.464844 324.097656 274.589844 323.835938 269.902344 323.023438 C 265.214844 322.214844 259.457031 320.726562 254.953125 319.421875 C 250.445312 318.113281 245.882812 314.765625 244.507812 311.222656 C 243.875 309.597656 244.167969 308.710938 243.460938 307.101562 C 242.195312 304.242188 238.8125 302.203125 235.28125 300.839844 C 231.757812 299.476562 230.101562 298.019531 224.027344 298.023438 C 222.722656 298.023438 215.988281 297.101562 213.175781 299.84375 C 211.660156 301.324219 213.28125 303.085938 214.546875 304.726562 C 217.4375 308.46875 222.789062 310.550781 227.539062 312.902344 C 232.289062 315.257812 237.039062 318.601562 237.324219 322.917969 C 237.484375 325.375 237.25 327.679688 235.746094 330.167969 C 234.398438 332.394531 232.765625 334.277344 237.84375 335.589844 C 240.53125 336.285156 245.167969 335.804688 247.773438 336.660156 C 250.542969 337.574219 251.8125 339.6875 254.050781 341.222656 C 257.128906 343.335938 261.324219 343.207031 265.433594 343.484375 C 271.71875 343.910156 277.324219 347.46875 279.417969 351.917969 C 278.167969 350.136719 275.429688 349.144531 273.171875 347.957031 C 268.078125 345.273438 261.425781 346.414062 257.421875 345.546875 C 258.898438 348.851562 256.75 354.46875 255.703125 357.882812 C 254.546875 361.644531 256.5625 361.617188 256.964844 366.253906 C 257.253906 369.5 255.480469 373.34375 251.511719 374.570312 C 253.941406 373.007812 254.511719 370.304688 254.191406 367.90625 C 253.875 365.511719 252.847656 363.183594 252.761719 360.773438 C 252.585938 355.796875 256.980469 349.828125 253.277344 345.753906 C 250.558594 342.753906 249.828125 340.355469 245.476562 339.246094 C 239.074219 337.597656 232.296875 338.960938 230.195312 334.839844 C 229.273438 333.027344 231.113281 330.460938 231.609375 328.558594 C 234.484375 317.535156 221.40625 315.238281 220.382812 316.003906 C 218.933594 317.089844 222.148438 320.488281 219.882812 323.703125 C 218.351562 325.871094 214.609375 326.878906 213.761719 329.273438 C 212.976562 331.492188 215.496094 333.535156 216.234375 335.765625 C 217.777344 340.386719 211.507812 345.207031 213.628906 349.691406 C 215.664062 353.988281 223.226562 354.226562 228.347656 356.46875 C 235.96875 359.808594 237.394531 369.148438 231.015625 373.886719 C 235.316406 367.59375 233.652344 360.410156 226.46875 358.71875 C 223.3125 357.976562 219.550781 357.3125 216.679688 356.054688 C 213.875 354.824219 211.941406 350.867188 208.707031 350.804688 C 206.296875 350.761719 204.511719 355.507812 203.347656 357.15625 C 202.179688 358.808594 201.59375 360.679688 200.375 362.304688 C 198.378906 364.96875 194.625 367.300781 195.128906 370.34375 C 195.378906 371.851562 195.714844 372.945312 195.742188 374.769531 C 193.160156 372.007812 192.9375 368.011719 195.207031 365.046875 C 196.589844 363.238281 198.8125 361.78125 199.585938 359.765625 C 200.09375 358.441406 202.027344 353.007812 202.800781 351.765625 C 205.605469 347.257812 208.835938 348.128906 210.898438 343.398438 C 215.152344 333.679688 206.125 334.238281 208.089844 329.8125 C 209.820312 325.90625 217.074219 323.761719 216.386719 319.683594 C 215.914062 316.871094 211.804688 315.367188 210.09375 312.855469 C 209.347656 311.761719 209.078125 310.5 208.308594 309.417969 C 206.988281 307.550781 204.128906 306.410156 201.402344 306.667969 C 198.671875 306.921875 197.992188 309.300781 197.277344 311.355469 C 195.707031 315.878906 200.160156 319.671875 198.515625 324.183594 C 198.007812 325.582031 196.753906 326.871094 196.871094 328.324219 C 196.984375 329.691406 198.28125 330.789062 199.128906 331.988281 C 201.074219 334.738281 200.492188 338.441406 197.757812 340.777344 C 194.972656 343.160156 190.652344 343.941406 187.007812 345.464844 C 183.363281 346.992188 180.019531 350.253906 181.65625 353.183594 C 179.421875 350.714844 179.757812 347.019531 182.429688 344.785156 C 184.652344 342.921875 187.976562 342.199219 190.835938 340.976562 C 193.695312 339.753906 196.40625 337.433594 195.648438 334.980469 C 194.988281 332.84375 191.910156 331.46875 191.59375 329.277344 C 191.457031 328.34375 191.433594 327.332031 191.914062 326.460938 C 196.011719 319.085938 190.808594 312.742188 179.222656 320.449219 C 175.363281 323.023438 178.558594 327.667969 175.53125 329.503906 C 172.0625 331.605469 162.988281 328.902344 160.988281 331.957031 C 159.109375 334.828125 165.78125 340.199219 165.601562 343.410156 C 165.421875 346.636719 161.527344 349.085938 160.648438 352.25 C 159.429688 356.640625 164.226562 360.574219 165.179688 364.992188 C 166.003906 368.800781 163.617188 372.941406 159.398438 375.007812 C 163.160156 372.753906 162.960938 368.257812 161.414062 364.789062 C 159.871094 361.3125 157.335938 357.9375 157.660156 354.257812 C 157.953125 350.914062 160.59375 347.933594 161.410156 344.636719 C 162.222656 341.335938 159.6875 337.910156 155.429688 337.433594 C 145.148438 336.289062 149.019531 345.605469 144.617188 349.226562 C 140.484375 352.621094 129.878906 354.761719 129.894531 361.136719 C 129.898438 364.027344 130.28125 367.773438 133.476562 369.238281 C 127.160156 366.746094 125.167969 359.449219 129.652344 355.117188 C 133.367188 351.53125 145.007812 347.4375 143.105469 343.960938 C 143.722656 345.085938 132.617188 345.980469 123.5625 344.078125 C 118.234375 342.957031 112.660156 345.523438 111.175781 349.652344 C 112.421875 346.1875 115.136719 343.519531 119.03125 342.671875 C 122.925781 341.820312 125.835938 342.609375 129.851562 342.78125 C 133.867188 342.953125 139.371094 343.476562 142.203125 341.21875 C 144.285156 339.5625 144.175781 336.175781 146.671875 334.902344 C 148.964844 333.734375 152.113281 333.863281 154.214844 332.492188 C 155.859375 331.421875 156.476562 329.671875 157.878906 328.410156 C 162.058594 324.632812 172.277344 330.0625 172.546875 325.128906 C 172.890625 318.835938 177.878906 315.609375 182.859375 314.484375 C 186.136719 313.742188 189.457031 312.515625 191.21875 310.246094 C 192.980469 307.984375 192.640625 304.628906 189.820312 303.160156 C 186.988281 301.683594 182.980469 302.636719 180.410156 304.410156 C 177.839844 306.175781 176.191406 308.601562 174.003906 310.660156 C 168.777344 315.570312 159.0625 317.308594 150.984375 316.566406 C 148.617188 316.335938 134.1875 315.324219 130.773438 327.386719 C 129.914062 330.414062 128.132812 333.75 124.46875 335.023438 C 120.074219 336.542969 114.3125 331.871094 110.003906 333.554688 C 106.441406 334.941406 105.828125 340.527344 103.714844 343.121094 C 101.351562 346.035156 96.722656 346.804688 92.707031 348.292969 C 98.828125 346.03125 101.949219 342.1875 103.902344 338.6875 C 106.125 334.710938 107.375 329.398438 113.9375 330.734375 " fill-opacity="1" fill-rule="nonzero"/><path fill="#12372a" d="M 278.1875 152.945312 L 279.234375 152.550781 L 279.71875 152.703125 C 284.554688 154.234375 288.796875 155.328125 292.6875 156.050781 C 296.5 156.738281 300.394531 157.222656 304.324219 157.515625 C 303.183594 157.34375 302.046875 157.15625 300.929688 156.960938 C 296.554688 156.175781 291.441406 154.8125 285.738281 152.910156 L 281.777344 151.589844 L 286.730469 149.753906 C 301.390625 144.382812 310.878906 137.617188 316.980469 131.480469 C 311.828125 134.925781 305.816406 137.875 299.949219 140.503906 L 297.320312 141.679688 L 297.910156 138.867188 C 298.796875 134.621094 299.988281 131.066406 301.457031 128.285156 C 300.679688 129.410156 299.949219 130.617188 299.289062 131.910156 C 297.996094 134.4375 296.929688 137.65625 296.121094 141.488281 L 295.960938 142.242188 L 295.25 142.539062 C 286.871094 146.050781 277.804688 149.453125 269.042969 152.746094 C 260.253906 156.046875 251.957031 159.164062 244.867188 162.183594 L 240.796875 163.914062 L 243.023438 160.089844 C 244.605469 157.371094 245.925781 154.84375 247.050781 152.355469 C 248.648438 148.820312 250.296875 144.347656 252.042969 139.605469 L 252.492188 138.371094 L 253.429688 138.296875 C 258.167969 137.914062 262.054688 137.328125 265.3125 136.503906 C 266.402344 136.230469 267.464844 135.929688 268.492188 135.609375 C 264.839844 136.398438 260.351562 136.941406 255.109375 137.238281 L 252.863281 137.363281 L 253.652344 135.257812 C 256.867188 126.660156 261.746094 113.601562 269.730469 102.816406 C 264.511719 107.71875 259.429688 114.085938 255.976562 122.128906 C 255.585938 123.039062 255.203125 123.9375 254.835938 124.824219 L 253.160156 128.84375 L 252.058594 124.632812 C 250.785156 119.746094 250.054688 115.359375 249.894531 111.597656 C 249.792969 109.222656 249.792969 106.027344 250.140625 102.316406 C 249.101562 107.230469 248.554688 112.800781 248.992188 118.835938 C 249.277344 122.730469 250.136719 127.226562 251.554688 132.195312 L 251.6875 132.671875 L 251.367188 133.503906 C 246.910156 144.949219 243.734375 155.070312 234.042969 166.773438 L 232.445312 168 C 226.910156 170.945312 221.40625 174.425781 216.085938 178.328125 L 214.269531 179.667969 L 213.785156 177.464844 C 212.148438 170.054688 211.433594 163.5 211.660156 157.988281 C 211.792969 154.652344 212.226562 149.917969 213.40625 144.40625 C 211.207031 150.835938 209.558594 158.371094 209.46875 166.613281 C 209.421875 170.898438 209.933594 175.824219 210.984375 181.257812 L 211.152344 182.121094 L 210.472656 182.675781 C 204.234375 187.742188 199.671875 192.285156 196.933594 195.199219 L 195.078125 197.179688 L 194.4375 194.539062 C 193.464844 190.523438 192.574219 185.710938 191.859375 181.839844 C 191.234375 178.472656 190.699219 175.558594 190.34375 174.429688 C 188.671875 169.132812 191.769531 136.792969 198.457031 116.171875 L 198.566406 115.835938 L 199.523438 114.882812 C 203.007812 111.414062 205.761719 108.671875 209.222656 105.421875 L 211.039062 103.679688 C 218.390625 96.625 228.949219 86.492188 238.277344 73.625 C 234.269531 78.71875 229.617188 83.800781 224.222656 88.605469 C 216.765625 95.289062 209.84375 101.640625 203.648438 107.484375 L 199.4375 111.003906 C 200.21875 108.753906 202.808594 101.46875 203.582031 99.304688 C 206.667969 90.582031 212.003906 75.476562 213.976562 57.242188 C 213.101562 62.96875 211.761719 68.875 209.796875 74.789062 L 209.054688 77.03125 L 206.164062 74.175781 C 202.425781 70.496094 199.199219 67.320312 196.917969 63.410156 C 195.957031 61.765625 195.007812 60.089844 194.109375 58.335938 C 195.28125 61.050781 196.777344 63.910156 198.671875 66.886719 C 200.398438 69.601562 203.546875 73.496094 207.785156 78.148438 L 208.382812 78.804688 L 206.109375 85.019531 C 194.285156 117.351562 185.738281 140.710938 183.058594 158.613281 L 182.464844 162.539062 L 180.359375 159.171875 C 175.082031 150.734375 170.117188 141.449219 165.613281 131.566406 L 165.273438 130.824219 L 165.722656 130.148438 C 168.742188 125.582031 171.078125 121.386719 172.65625 117.667969 C 176.164062 109.441406 177.414062 101.742188 177.566406 95.214844 C 176.601562 101.507812 174.878906 106.785156 173.503906 110.304688 C 171.808594 114.652344 169.046875 119.695312 165.304688 125.28125 L 163.796875 127.535156 L 162.734375 125.035156 C 158.664062 115.46875 154.953125 105.273438 151.703125 94.726562 L 151.492188 94.042969 L 151.90625 93.453125 C 155.042969 88.984375 157.265625 85.140625 158.710938 81.703125 C 160.015625 78.613281 160.878906 75.636719 161.417969 72.835938 C 160.96875 74.34375 160.5 75.664062 160.078125 76.75 C 158.640625 80.476562 156.164062 84.871094 152.71875 89.8125 L 150.960938 92.335938 L 150.101562 89.386719 C 146.101562 75.621094 143.421875 63.199219 141.695312 53.417969 C 142.050781 59.183594 142.835938 66.132812 144.417969 74.382812 L 145.09375 77.894531 L 142.148438 75.871094 C 135.675781 71.421875 130.792969 67.394531 127.230469 63.558594 C 127.03125 63.34375 126.832031 63.128906 126.636719 62.90625 C 128.277344 65.054688 130.117188 67.183594 132.167969 69.265625 C 135.453125 72.628906 139.707031 76.113281 145.160156 79.921875 L 145.632812 80.25 L 145.753906 80.804688 C 148.09375 91.269531 151.449219 102.691406 155.730469 114.734375 L 156.839844 117.855469 L 153.785156 116.582031 C 141.742188 111.570312 112.273438 98.429688 98.734375 84.726562 C 98.40625 84.390625 98.082031 84.046875 97.761719 83.695312 C 99.480469 85.886719 101.421875 88.058594 103.609375 90.164062 C 116.484375 102.535156 139.300781 113.988281 155.964844 122.34375 L 156.867188 122.796875 L 157.070312 123.328125 C 157.734375 125.070312 158.40625 126.84375 159.085938 128.644531 C 162.9375 138.847656 167.304688 150.417969 173.238281 162.886719 L 174.53125 165.601562 L 171.597656 164.953125 C 163.140625 163.074219 157.835938 160.820312 151.691406 158.210938 L 150.601562 157.746094 C 142.640625 154.371094 135.15625 150.289062 128.445312 145.722656 C 135.859375 152.09375 146.03125 159.035156 159.261719 164.363281 C 161.347656 165.210938 162.96875 166.003906 164.539062 166.773438 C 167.441406 168.203125 169.957031 169.433594 174.523438 170.507812 L 175.195312 170.667969 L 175.5 171.28125 C 176.042969 172.371094 180.058594 194.683594 180.101562 194.90625 L 180.5625 197.410156 C 180.703125 197.8125 177.671875 196.242188 177.703125 196.261719 C 177.316406 195.984375 174.792969 194.65625 171.871094 193.117188 C 153.449219 183.414062 104.511719 157.640625 85.746094 135.347656 C 83.558594 132.617188 81.523438 129.472656 79.6875 126.015625 C 82.277344 131.625 85.769531 137.398438 90.457031 142.941406 C 101.472656 156.046875 118.367188 165.96875 134.710938 175.558594 L 140.546875 179.695312 L 134.835938 178.929688 C 107.277344 174.179688 83.105469 167.117188 62.644531 157.859375 C 70.605469 162.019531 81.59375 166.695312 96.914062 171.40625 L 100.628906 172.550781 L 96.957031 174.199219 C 94.34375 175.085938 91.902344 175.761719 89.695312 176.207031 C 87.859375 176.574219 85.996094 176.882812 84.101562 177.125 C 88.753906 176.976562 93.328125 176.421875 97.734375 175.480469 C 98.394531 175.339844 102.742188 173.53125 103.171875 173.328125 C 116.316406 177.261719 132.226562 181.363281 151.800781 185.867188 L 152.042969 185.921875 L 152.253906 186.058594 C 155.097656 187.847656 157.597656 189.507812 159.898438 191.128906 L 163.152344 193.417969 L 159.191406 193.789062 C 155.316406 194.152344 151.464844 195.171875 147.746094 196.816406 C 145.84375 197.652344 144.058594 198.796875 142.171875 200 C 140.730469 200.925781 139.238281 201.878906 137.632812 202.734375 C 130.179688 206.699219 121.964844 208.179688 115.964844 209.261719 C 112.585938 209.863281 109.078125 210.324219 105.550781 210.628906 C 105.589844 210.628906 105.621094 210.628906 105.65625 210.628906 C 112.113281 210.628906 118.550781 210.035156 124.761719 208.859375 L 124.871094 208.832031 L 129.882812 208.0625 L 126.03125 211.449219 C 121.410156 214.917969 116.316406 218.515625 110.601562 221.09375 C 113.644531 220.070312 117.210938 218.589844 121.355469 216.484375 C 123.820312 215.226562 126.398438 213.839844 128.886719 212.5 C 139.574219 206.742188 150.621094 200.789062 160.363281 200.789062 C 167.164062 200.789062 172.710938 203.785156 176.84375 209.695312 C 180.882812 215.453125 181.847656 222.949219 182.222656 228.082031 C 183.925781 251.480469 179.8125 278.820312 167.097656 290.34375 C 169.875 290.59375 173.4375 292.457031 176.148438 292.457031 C 176.894531 292.457031 180.003906 293.941406 180.5625 293.90625 C 192.53125 293.082031 202.1875 291.515625 213.953125 290.96875 C 211.707031 284.078125 204.648438 259.210938 206.804688 243.246094 C 210.445312 216.351562 230.808594 213.242188 245.8125 213.242188 C 247.441406 213.242188 249.15625 213.28125 251.1875 213.351562 L 251.789062 213.371094 L 252.199219 213.808594 C 254.359375 216.078125 256.488281 218.035156 258.53125 219.625 C 262.046875 222.359375 265.742188 224.59375 269.3125 226.414062 C 267.078125 224.863281 265.144531 223.410156 263.605469 222.253906 C 261.761719 220.871094 259.757812 218.949219 257.3125 216.210938 L 254.886719 213.5 L 258.511719 213.769531 C 259.847656 213.871094 261.199219 213.976562 262.578125 214.085938 C 266.902344 214.429688 271.367188 214.785156 276.160156 214.953125 C 278.476562 215.050781 280.71875 215.097656 282.820312 215.097656 C 285.824219 215.097656 288.476562 215.003906 290.816406 214.832031 C 281.773438 214.828125 272.097656 213.199219 262.742188 211.621094 C 256.277344 210.535156 249.59375 209.410156 243.316406 208.863281 L 237.992188 208.398438 L 242.804688 206.078125 C 244.804688 205.113281 246.675781 204.082031 248.421875 203.015625 C 243.777344 205.089844 239.640625 206.359375 236.6875 207.109375 C 233.597656 207.875 227.289062 209.101562 224.914062 209.5625 C 224.542969 209.636719 224.09375 209.726562 224.09375 209.726562 C 214.226562 211.824219 208.042969 216.148438 204.597656 219.40625 L 202.695312 221.203125 L 202.035156 218.085938 C 201.15625 213.933594 200.390625 210.34375 201.339844 207.636719 C 205.035156 197.019531 221.46875 181.964844 231.960938 174.667969 L 232.492188 174.300781 L 236.722656 175.257812 C 255.332031 179.472656 278.492188 184.71875 296.152344 184.71875 C 297.195312 184.710938 298.222656 184.691406 299.234375 184.65625 C 284.023438 183.933594 261.984375 179.695312 239.003906 173 L 235.765625 172.058594 L 238.667969 170.332031 C 250.570312 163.238281 263.367188 158.46875 278.1875 152.945312 " fill-opacity="1" fill-rule="nonzero"/><path fill="#12372a" d="M 134.554688 8.335938 C 134.546875 8.375 124.335938 22.140625 139.5625 32.496094 C 139.558594 32.535156 149.921875 19.289062 134.554688 8.335938 " fill-opacity="1" fill-rule="nonzero"/><path fill="#12372a" d="M 28.398438 118.761719 C 28.410156 118.8125 27.199219 129.871094 41.550781 129.019531 C 41.566406 129.078125 43.007812 117.753906 28.398438 118.761719 " fill-opacity="1" fill-rule="nonzero"/><path fill="#12372a" d="M 43.632812 107.402344 C 43.640625 107.4375 43.011719 116.269531 54.527344 115.457031 C 54.535156 115.496094 55.375 106.53125 43.632812 107.402344 " fill-opacity="1" fill-rule="nonzero"/><path fill="#12372a" d="M 148.316406 12.476562 C 148.316406 12.476562 141.132812 19.015625 147.945312 26.417969 C 147.941406 26.417969 155.128906 20.25 148.316406 12.476562 " fill-opacity="1" fill-rule="nonzero"/><path fill="#12372a" d="M 153.226562 8.285156 C 153.222656 8.292969 151.304688 13.417969 157.085938 17.023438 C 157.457031 15.371094 159.023438 12.003906 153.226562 8.285156 " fill-opacity="1" fill-rule="nonzero"/><path fill="#12372a" d="M 194.140625 5.890625 C 194.136719 5.84375 179.601562 14.90625 189.617188 30.609375 C 189.613281 30.558594 204.050781 22.316406 194.140625 5.890625 " fill-opacity="1" fill-rule="nonzero"/><path fill="#12372a" d="M 209.453125 3.230469 C 209.445312 3.238281 199.335938 15.601562 214.753906 28.171875 C 214.742188 28.179688 225.011719 16.511719 209.453125 3.230469 " fill-opacity="1" fill-rule="nonzero"/><path fill="#12372a" d="M 124.140625 26.332031 C 124.140625 26.402344 116.710938 41.238281 134.042969 48.691406 C 134.042969 48.761719 141.730469 34.164062 124.140625 26.332031 " fill-opacity="1" fill-rule="nonzero"/><path fill="#12372a" d="M 156.386719 23.675781 C 156.378906 23.601562 139.789062 30.636719 145.1875 47.46875 C 145.183594 47.402344 161.503906 41.140625 156.386719 23.675781 " fill-opacity="1" fill-rule="nonzero"/><path fill="#12372a" d="M 169.867188 26.726562 C 169.859375 26.6875 157.554688 31.496094 161.539062 44.109375 C 161.535156 44.074219 173.644531 39.777344 169.867188 26.726562 " fill-opacity="1" fill-rule="nonzero"/><path fill="#12372a" d="M 201.816406 30.164062 C 201.816406 30.117188 189.492188 34.121094 193.441406 46.996094 C 193.4375 46.953125 205.554688 43.433594 201.816406 30.164062 " fill-opacity="1" fill-rule="nonzero"/><path fill="#12372a" d="M 168.710938 4.722656 C 168.707031 4.675781 156.382812 9.542969 160.375 22.136719 C 160.371094 22.09375 172.496094 17.757812 168.710938 4.722656 " fill-opacity="1" fill-rule="nonzero"/><path fill="#12372a" d="M 178.804688 49.472656 C 178.804688 49.421875 165.648438 51.089844 165.730469 64.371094 C 165.730469 64.324219 178.554688 63.007812 178.804688 49.472656 " fill-opacity="1" fill-rule="nonzero"/><path fill="#12372a" d="M 204.890625 37.152344 C 204.886719 37.164062 198.988281 45.359375 209.796875 51.78125 C 209.792969 51.789062 215.824219 43.941406 204.890625 37.152344 " fill-opacity="1" fill-rule="nonzero"/><path fill="#12372a" d="M 66.730469 54.394531 C 66.738281 54.4375 64.277344 64.238281 76.417969 64.175781 C 76.425781 64.214844 79.082031 54.351562 66.730469 54.394531 " fill-opacity="1" fill-rule="nonzero"/><path fill="#12372a" d="M 174.851562 66.65625 C 174.851562 66.617188 163.558594 67.554688 164.238281 78.734375 C 164.238281 78.707031 175.269531 78.070312 174.851562 66.65625 " fill-opacity="1" fill-rule="nonzero"/><path fill="#12372a" d="M 227.824219 23.347656 C 227.824219 23.304688 216.496094 22.992188 217.121094 34.210938 C 217.121094 34.175781 228.191406 34.714844 227.824219 23.347656 " fill-opacity="1" fill-rule="nonzero"/><path fill="#12372a" d="M 188.125 67.539062 C 188.125 67.519531 179 68.664062 180.347656 77.710938 C 180.347656 77.691406 189.285156 76.804688 188.125 67.539062 " fill-opacity="1" fill-rule="nonzero"/><path fill="#12372a" d="M 188.207031 48.664062 C 188.207031 48.691406 187.734375 40.511719 177.34375 40.953125 C 177.34375 40.980469 177.570312 48.789062 188.207031 48.664062 " fill-opacity="1" fill-rule="nonzero"/><path fill="#12372a" d="M 190.257812 58.421875 C 190.257812 58.441406 189.847656 51.3125 180.789062 51.640625 C 180.789062 51.660156 180.984375 58.492188 190.257812 58.421875 " fill-opacity="1" fill-rule="nonzero"/><path fill="#12372a" d="M 193.675781 64.035156 C 193.675781 64.046875 191.335938 58.707031 184.566406 60.929688 C 184.566406 60.9375 186.691406 66.089844 193.675781 64.035156 " fill-opacity="1" fill-rule="nonzero"/><path fill="#12372a" d="M 201.597656 76.507812 C 201.597656 76.527344 198.484375 69.339844 189.4375 72.21875 C 189.4375 72.242188 192.277344 79.132812 201.597656 76.507812 " fill-opacity="1" fill-rule="nonzero"/><path fill="#12372a" d="M 181.773438 58.273438 C 181.769531 58.253906 173.289062 61.527344 177.253906 69.90625 C 177.25 69.890625 185.621094 66.949219 181.773438 58.273438 " fill-opacity="1" fill-rule="nonzero"/><path fill="#12372a" d="M 205.386719 24.746094 C 205.382812 24.761719 201.6875 31.960938 211.164062 36.179688 C 211.160156 36.191406 215.007812 29.230469 205.386719 24.746094 " fill-opacity="1" fill-rule="nonzero"/><path fill="#12372a" d="M 175.828125 0.222656 C 175.828125 0.242188 172.140625 7.667969 181.65625 11.332031 C 181.652344 11.351562 185.488281 4.125 175.828125 0.222656 " fill-opacity="1" fill-rule="nonzero"/><path fill="#12372a" d="M 121.117188 13.597656 C 121.117188 13.621094 117.488281 21.40625 126.945312 23.933594 C 126.945312 23.953125 130.714844 16.320312 121.117188 13.597656 " fill-opacity="1" fill-rule="nonzero"/><path fill="#12372a" d="M 171.105469 96.300781 C 171.105469 96.308594 178.019531 88.28125 168.054688 81.558594 C 168.050781 81.5625 161.078125 89.265625 171.105469 96.300781 " fill-opacity="1" fill-rule="nonzero"/><path fill="#12372a" d="M 186.636719 38.363281 C 186.636719 38.394531 188.753906 28.523438 176.214844 26.417969 C 176.214844 26.449219 173.871094 35.863281 186.636719 38.363281 " fill-opacity="1" fill-rule="nonzero"/><path fill="#12372a" d="M 181.453125 88.628906 C 181.453125 88.605469 191.257812 88.148438 190.757812 78.453125 C 190.757812 78.429688 181.15625 78.648438 181.453125 88.628906 " fill-opacity="1" fill-rule="nonzero"/><path fill="#12372a" d="M 142.980469 133.933594 C 142.980469 133.910156 152.722656 132.867188 152.191406 123.207031 C 152.1875 123.1875 142.652344 124.007812 142.980469 133.933594 " fill-opacity="1" fill-rule="nonzero"/><path fill="#12372a" d="M 164.273438 51.742188 C 164.269531 51.714844 174.101562 50.953125 173.589844 41.265625 C 173.585938 41.238281 163.957031 41.78125 164.273438 51.742188 " fill-opacity="1" fill-rule="nonzero"/><path fill="#12372a" d="M 170.125 23.441406 C 170.125 23.410156 179.988281 22.753906 179.476562 13.0625 C 179.476562 13.03125 169.820312 13.464844 170.125 23.441406 " fill-opacity="1" fill-rule="nonzero"/><path fill="#12372a" d="M 162.488281 96.824219 C 162.484375 96.851562 157.855469 106.605469 170.128906 111.003906 C 170.128906 111.027344 174.949219 101.511719 162.488281 96.824219 " fill-opacity="1" fill-rule="nonzero"/><path fill="#12372a" d="M 149.800781 58.242188 C 149.796875 58.269531 145.167969 68.125 157.480469 72.199219 C 157.480469 72.226562 162.300781 62.578125 149.800781 58.242188 " fill-opacity="1" fill-rule="nonzero"/><path fill="#12372a" d="M 152.128906 48.027344 C 152.128906 48.050781 149.445312 56.550781 160.203125 58.808594 C 160.203125 58.832031 163.082031 50.460938 152.128906 48.027344 " fill-opacity="1" fill-rule="nonzero"/><path fill="#12372a" d="M 200.316406 49.832031 C 200.3125 49.855469 195.632812 59.289062 207.945312 64.519531 C 207.941406 64.539062 212.820312 55.394531 200.316406 49.832031 " fill-opacity="1" fill-rule="nonzero"/><path fill="#12372a" d="M 202.359375 134.242188 C 202.355469 134.25 196.507812 142.570312 207.222656 148.777344 C 207.21875 148.785156 213.195312 140.8125 202.359375 134.242188 " fill-opacity="1" fill-rule="nonzero"/><path fill="#12372a" d="M 206.4375 125.496094 C 206.4375 125.503906 202.769531 132.765625 212.160156 136.832031 C 212.15625 136.84375 215.96875 129.828125 206.4375 125.496094 " fill-opacity="1" fill-rule="nonzero"/><path fill="#12372a" d="M 197.828125 147.003906 C 197.828125 147.019531 193.1875 156.550781 205.390625 161.558594 C 205.390625 161.574219 210.222656 152.347656 197.828125 147.003906 " fill-opacity="1" fill-rule="nonzero"/><path fill="#12372a" d="M 197.667969 161.730469 C 197.667969 161.746094 193.035156 171.289062 205.222656 176.269531 C 205.21875 176.28125 210.046875 167.046875 197.667969 161.730469 " fill-opacity="1" fill-rule="nonzero"/><path fill="#12372a" d="M 189.457031 107.695312 C 189.457031 107.660156 177.597656 106.664062 176.171875 118.476562 C 176.171875 118.445312 187.703125 119.640625 189.457031 107.695312 " fill-opacity="1" fill-rule="nonzero"/><path fill="#12372a" d="M 180.941406 100.464844 C 180.945312 100.441406 191.957031 103.308594 195.757812 92.542969 C 195.761719 92.519531 185.074219 89.328125 180.941406 100.464844 " fill-opacity="1" fill-rule="nonzero"/><path fill="#12372a" d="M 213.042969 77.480469 C 213.046875 77.453125 224.03125 81.03125 227.96875 70.605469 C 227.972656 70.582031 217.324219 66.660156 213.042969 77.480469 " fill-opacity="1" fill-rule="nonzero"/><path fill="#12372a" d="M 217.019531 66.21875 C 217.023438 66.1875 228.460938 68.019531 229.953125 56.960938 C 229.953125 56.929688 218.804688 54.777344 217.019531 66.21875 " fill-opacity="1" fill-rule="nonzero"/><path fill="#12372a" d="M 217.476562 53.730469 C 217.476562 53.699219 228.859375 56.015625 230.933594 45.09375 C 230.9375 45.0625 219.851562 42.417969 217.476562 53.730469 " fill-opacity="1" fill-rule="nonzero"/><path fill="#12372a" d="M 218.40625 42.8125 C 218.410156 42.777344 229.804688 45.148438 231.878906 34.238281 C 231.882812 34.207031 220.789062 31.507812 218.40625 42.8125 " fill-opacity="1" fill-rule="nonzero"/><path fill="#12372a" d="M 261.113281 17.800781 C 261.109375 17.757812 250.4375 23.082031 258.089844 35.636719 C 258.089844 35.59375 268.683594 30.84375 261.113281 17.800781 " fill-opacity="1" fill-rule="nonzero"/><path fill="#12372a" d="M 249.789062 89.023438 C 249.792969 89.035156 240.664062 81.234375 230.757812 88.640625 C 230.757812 88.65625 239.46875 96.027344 249.789062 89.023438 " fill-opacity="1" fill-rule="nonzero"/><path fill="#12372a" d="M 242.382812 96.925781 C 242.390625 96.925781 232.113281 90.589844 223.878906 99.597656 C 223.878906 99.605469 233.734375 105.628906 242.382812 96.925781 " fill-opacity="1" fill-rule="nonzero"/><path fill="#12372a" d="M 229.46875 105.824219 C 229.472656 105.816406 218.78125 100.363281 211.335938 110.109375 C 211.339844 110.105469 221.601562 115.34375 229.46875 105.824219 " fill-opacity="1" fill-rule="nonzero"/><path fill="#12372a" d="M 245.339844 40.046875 C 245.339844 40.023438 236.671875 45.339844 244.699219 54.835938 C 244.695312 54.816406 253.347656 49.953125 245.339844 40.046875 " fill-opacity="1" fill-rule="nonzero"/><path fill="#12372a" d="M 270.527344 39.226562 C 270.53125 39.203125 260.484375 35.109375 257.257812 44.476562 C 257.261719 44.460938 267 48.480469 270.527344 39.226562 " fill-opacity="1" fill-rule="nonzero"/><path fill="#12372a" d="M 250.347656 29.195312 C 250.347656 29.191406 244.15625 34.277344 251.714844 41.410156 C 251.710938 41.402344 257.9375 36.671875 250.347656 29.195312 " fill-opacity="1" fill-rule="nonzero"/><path fill="#12372a" d="M 272.894531 85.898438 C 272.894531 85.878906 265.320312 89.15625 270.914062 97.4375 C 270.914062 97.417969 278.433594 94.484375 272.894531 85.898438 " fill-opacity="1" fill-rule="nonzero"/><path fill="#12372a" d="M 280.246094 79.507812 C 280.246094 79.484375 272.683594 82.605469 278.265625 90.960938 C 278.265625 90.941406 285.777344 88.160156 280.246094 79.507812 " fill-opacity="1" fill-rule="nonzero"/><path fill="#12372a" d="M 200.222656 -0.00390625 C 200.222656 -0.00390625 194.167969 5.621094 201.613281 11.914062 C 201.609375 11.910156 207.707031 6.609375 200.222656 -0.00390625 " fill-opacity="1" fill-rule="nonzero"/><path fill="#12372a" d="M 301.363281 50.464844 C 301.367188 50.425781 291.265625 50.792969 294.617188 61.386719 C 294.621094 61.347656 304.550781 61.257812 301.363281 50.464844 " fill-opacity="1" fill-rule="nonzero"/><path fill="#12372a" d="M 307.425781 105.101562 C 307.425781 105.085938 301.5 109.425781 308.6875 116.691406 C 308.6875 116.671875 314.636719 112.695312 307.425781 105.101562 " fill-opacity="1" fill-rule="nonzero"/><path fill="#12372a" d="M 337.613281 119.617188 C 337.621094 119.605469 328.992188 116.667969 327.929688 124.707031 C 327.933594 124.695312 336.34375 127.621094 337.613281 119.617188 " fill-opacity="1" fill-rule="nonzero"/><path fill="#12372a" d="M 328.640625 83.269531 C 328.652344 83.238281 318.351562 80.132812 317.769531 89.960938 C 317.777344 89.933594 327.824219 93.042969 328.640625 83.269531 " fill-opacity="1" fill-rule="nonzero"/><path fill="#12372a" d="M 318.542969 67.9375 C 318.550781 67.902344 308.636719 66.667969 310.21875 76.679688 C 310.222656 76.644531 319.929688 78.035156 318.542969 67.9375 " fill-opacity="1" fill-rule="nonzero"/><path fill="#12372a" d="M 333.828125 129.125 C 333.832031 129.125 325.835938 124.289062 321.914062 131.101562 C 321.917969 131.105469 329.660156 135.78125 333.828125 129.125 " fill-opacity="1" fill-rule="nonzero"/><path fill="#12372a" d="M 319.347656 117.160156 C 319.351562 117.132812 311.242188 118.15625 314.800781 126.769531 C 314.804688 126.742188 322.789062 125.972656 319.347656 117.160156 " fill-opacity="1" fill-rule="nonzero"/><path fill="#12372a" d="M 288.242188 40.058594 C 288.242188 40.042969 281.703125 43.839844 288.332031 51.621094 C 288.332031 51.609375 294.863281 48.167969 288.242188 40.058594 " fill-opacity="1" fill-rule="nonzero"/><path fill="#12372a" d="M 272.203125 27.921875 C 272.207031 27.894531 263.398438 27.511719 264.808594 36.382812 C 264.8125 36.359375 273.441406 36.925781 272.203125 27.921875 " fill-opacity="1" fill-rule="nonzero"/><path fill="#12372a" d="M 310.199219 124.109375 C 310.203125 124.082031 302.070312 125.3125 305.636719 133.902344 C 305.640625 133.875 313.65625 132.898438 310.199219 124.109375 " fill-opacity="1" fill-rule="nonzero"/><path fill="#12372a" d="M 322.875 145.410156 C 322.875 145.433594 317.714844 138.300781 309.722656 141.699219 C 309.722656 141.71875 314.617188 148.566406 322.875 145.410156 " fill-opacity="1" fill-rule="nonzero"/><path fill="#12372a" d="M 315.871094 152.144531 C 315.871094 152.167969 312.613281 144.539062 303.429688 145.988281 C 303.429688 146.015625 306.429688 153.347656 315.871094 152.144531 " fill-opacity="1" fill-rule="nonzero"/><path fill="#12372a" d="M 301.117188 164.605469 C 301.113281 164.628906 297.839844 157.039062 288.625 158.824219 C 288.625 158.84375 291.636719 166.160156 301.117188 164.605469 " fill-opacity="1" fill-rule="nonzero"/><path fill="#12372a" d="M 315.445312 166.921875 C 315.441406 166.945312 312.1875 159.363281 303.007812 160.921875 C 303.003906 160.945312 306.003906 168.25 315.445312 166.921875 " fill-opacity="1" fill-rule="nonzero"/><path fill="#12372a" d="M 328.644531 148.789062 C 328.648438 148.769531 319.949219 147.152344 320.117188 155.582031 C 320.121094 155.566406 328.621094 157.253906 328.644531 148.789062 " fill-opacity="1" fill-rule="nonzero"/><path fill="#12372a" d="M 330.824219 163 C 330.824219 163.015625 324.3125 156.726562 317.734375 161.714844 C 317.734375 161.734375 323.972656 167.777344 330.824219 163 " fill-opacity="1" fill-rule="nonzero"/><path fill="#12372a" d="M 329.089844 137.03125 C 329.09375 137.039062 321.789062 131.328125 316.367188 137.222656 C 316.367188 137.234375 323.40625 142.730469 329.089844 137.03125 " fill-opacity="1" fill-rule="nonzero"/><path fill="#12372a" d="M 276.582031 143.453125 C 276.582031 143.46875 271.847656 136.308594 263.386719 139.914062 C 263.386719 139.933594 267.835938 146.832031 276.582031 143.453125 " fill-opacity="1" fill-rule="nonzero"/><path fill="#12372a" d="M 285.917969 140.78125 C 285.917969 140.800781 281.214844 133.582031 272.746094 137.007812 C 272.746094 137.03125 277.171875 143.972656 285.917969 140.78125 " fill-opacity="1" fill-rule="nonzero"/><path fill="#12372a" d="M 293.5 136.105469 C 293.5 136.121094 289.246094 129.535156 281.578125 132.492188 C 281.578125 132.511719 285.582031 138.851562 293.5 136.105469 " fill-opacity="1" fill-rule="nonzero"/><path fill="#12372a" d="M 296.476562 128.921875 C 296.476562 128.925781 291.59375 125.121094 287.6875 129.230469 C 287.691406 129.230469 292.378906 132.949219 296.476562 128.921875 " fill-opacity="1" fill-rule="nonzero"/><path fill="#12372a" d="M 275.976562 118.167969 C 275.976562 118.132812 266.046875 121.238281 271.65625 131.761719 C 271.65625 131.730469 281.46875 129.023438 275.976562 118.167969 " fill-opacity="1" fill-rule="nonzero"/><path fill="#12372a" d="M 284.25 115.519531 C 284.25 115.496094 276.25 117.984375 280.957031 126.550781 C 280.957031 126.527344 288.867188 124.347656 284.25 115.519531 " fill-opacity="1" fill-rule="nonzero"/><path fill="#12372a" d="M 265.53125 121.640625 C 265.53125 121.621094 257.503906 124.429688 262.234375 132.910156 C 262.234375 132.890625 270.175781 130.394531 265.53125 121.640625 " fill-opacity="1" fill-rule="nonzero"/><path fill="#12372a" d="M 231.277344 62.609375 C 231.273438 62.601562 225.09375 68.035156 232.660156 74.835938 C 232.65625 74.828125 238.878906 69.742188 231.277344 62.609375 " fill-opacity="1" fill-rule="nonzero"/><path fill="#12372a" d="M 214.792969 80.417969 C 214.789062 80.414062 208.613281 86.082031 216.191406 92.644531 C 216.191406 92.640625 222.402344 87.308594 214.792969 80.417969 " fill-opacity="1" fill-rule="nonzero"/><path fill="#12372a" d="M 236.328125 49.820312 C 236.324219 49.808594 228.382812 56.8125 238.277344 65.671875 C 238.273438 65.664062 246.269531 59.128906 236.328125 49.820312 " fill-opacity="1" fill-rule="nonzero"/><path fill="#12372a" d="M 239.359375 79.308594 C 239.363281 79.3125 248.664062 86.03125 256.296875 78.011719 C 256.300781 78.019531 247.40625 70.933594 239.359375 79.308594 " fill-opacity="1" fill-rule="nonzero"/><path fill="#12372a" d="M 216.613281 132.410156 C 216.617188 132.355469 231.808594 129.863281 227.707031 114.566406 C 227.710938 114.507812 212.75 116.640625 216.613281 132.410156 " fill-opacity="1" fill-rule="nonzero"/><path fill="#12372a" d="M 283.132812 91.003906 C 283.144531 90.960938 298.417969 96.0625 301.621094 82.148438 C 301.636719 82.105469 286.800781 76.398438 283.132812 91.003906 " fill-opacity="1" fill-rule="nonzero"/><path fill="#12372a" d="M 295.128906 77.25 C 295.140625 77.171875 310.449219 78.808594 308.316406 63.617188 C 308.324219 63.539062 293.296875 61.480469 295.128906 77.25 " fill-opacity="1" fill-rule="nonzero"/><path fill="#12372a" d="M 289.242188 125.007812 C 289.25 124.941406 304.035156 123.703125 299.160156 108.472656 C 299.171875 108.402344 284.585938 109.277344 289.242188 125.007812 " fill-opacity="1" fill-rule="nonzero"/><path fill="#12372a" d="M 313.492188 115.765625 C 313.496094 115.722656 324.363281 115.386719 320.785156 104.117188 C 320.792969 104.074219 310.078125 104.144531 313.492188 115.765625 " fill-opacity="1" fill-rule="nonzero"/><path fill="#12372a" d="M 293.878906 106.746094 C 293.882812 106.703125 304.828125 105.984375 301.222656 94.660156 C 301.226562 94.617188 290.433594 95.074219 293.878906 106.746094 " fill-opacity="1" fill-rule="nonzero"/><path fill="#12372a" d="M 328.011719 116.355469 C 328.023438 116.28125 340.949219 114.007812 333.550781 99.632812 C 333.5625 99.554688 320.722656 101.59375 328.011719 116.355469 " fill-opacity="1" fill-rule="nonzero"/><path fill="#12372a" d="M 275.839844 55.195312 C 275.839844 55.148438 287.496094 49.378906 277.167969 35.925781 C 277.167969 35.878906 265.527344 41.429688 275.839844 55.195312 " fill-opacity="1" fill-rule="nonzero"/><path fill="#12372a" d="M 221.242188 20.640625 C 221.242188 20.597656 232.175781 18.949219 228.902344 7.914062 C 228.90625 7.875 218.136719 9.289062 221.242188 20.640625 " fill-opacity="1" fill-rule="nonzero"/><path fill="#12372a" d="M 250.355469 26.285156 C 250.347656 26.296875 255.644531 18.347656 244.457031 11.535156 C 244.453125 11.542969 239.042969 19.179688 250.355469 26.285156 " fill-opacity="1" fill-rule="nonzero"/><path fill="#12372a" d="M 257.703125 79.117188 C 257.714844 79.066406 273.105469 83.5625 276.324219 69.265625 C 276.335938 69.214844 261.367188 64.144531 257.703125 79.117188 " fill-opacity="1" fill-rule="nonzero"/><path fill="#12372a" d="M 244.976562 69.378906 C 244.976562 69.382812 253.59375 75.714844 260.664062 68.394531 C 260.667969 68.402344 252.433594 61.742188 244.976562 69.378906 " fill-opacity="1" fill-rule="nonzero"/><path fill="#12372a" d="M 250.972656 60.621094 C 250.976562 60.613281 260.40625 66.03125 265.980469 57.804688 C 265.980469 57.804688 256.914062 52.042969 250.972656 60.621094 " fill-opacity="1" fill-rule="nonzero"/><path fill="#12372a" d="M 277.589844 56.367188 C 277.589844 56.328125 267.214844 56.261719 269.3125 66.789062 C 269.3125 66.753906 279.484375 67.054688 277.589844 56.367188 " fill-opacity="1" fill-rule="nonzero"/><path fill="#12372a" d="M 303.773438 92.835938 C 303.785156 92.761719 318.882812 94.683594 316.625 79.789062 C 316.636719 79.714844 301.816406 77.375 303.773438 92.835938 " fill-opacity="1" fill-rule="nonzero"/><path fill="#12372a" d="M 307.792969 102.007812 C 307.804688 101.972656 322.28125 107.40625 324.929688 94.367188 C 324.941406 94.335938 310.882812 88.324219 307.792969 102.007812 " fill-opacity="1" fill-rule="nonzero"/><path fill="#12372a" d="M 255.5 51.933594 C 255.5 51.925781 264.929688 57.453125 270.5 49.324219 C 270.503906 49.320312 261.441406 43.453125 255.5 51.933594 " fill-opacity="1" fill-rule="nonzero"/><path fill="#12372a" d="M 228.851562 132.863281 C 228.851562 132.847656 219.898438 130.984375 218.070312 139.773438 C 218.074219 139.765625 226.761719 141.71875 228.851562 132.863281 " fill-opacity="1" fill-rule="nonzero"/><path fill="#12372a" d="M 214.863281 157.695312 C 214.867188 157.679688 225.378906 160.210938 228.191406 150.007812 C 228.195312 149.984375 217.976562 147.160156 214.863281 157.695312 " fill-opacity="1" fill-rule="nonzero"/><path fill="#12372a" d="M 215.292969 165.976562 C 215.296875 165.96875 225.617188 169.988281 230.371094 160.089844 C 230.371094 160.082031 220.386719 155.757812 215.292969 165.976562 " fill-opacity="1" fill-rule="nonzero"/><path fill="#12372a" d="M 216.199219 147.988281 C 216.199219 147.976562 225.207031 150.140625 227.566406 141.402344 C 227.570312 141.386719 218.820312 138.984375 216.199219 147.988281 " fill-opacity="1" fill-rule="nonzero"/><path fill="#12372a" d="M 269.171875 83.140625 C 269.175781 83.128906 260.972656 78.828125 256.875 86.34375 C 256.878906 86.335938 264.800781 90.542969 269.171875 83.140625 " fill-opacity="1" fill-rule="nonzero"/><path fill="#12372a" d="M 254.921875 95.195312 C 254.925781 95.195312 262.949219 99.875 267.855469 92.804688 C 267.859375 92.804688 260.144531 87.875 254.921875 95.195312 " fill-opacity="1" fill-rule="nonzero"/><path fill="#12372a" d="M 276.640625 98.308594 C 276.644531 98.308594 284.628906 103.242188 289.511719 96.464844 C 289.515625 96.46875 281.847656 91.277344 276.640625 98.308594 " fill-opacity="1" fill-rule="nonzero"/><path fill="#12372a" d="M 272.914062 104.496094 C 272.917969 104.503906 280.273438 110.128906 286.289062 104.085938 C 286.289062 104.09375 279.257812 98.234375 272.914062 104.496094 " fill-opacity="1" fill-rule="nonzero"/><path fill="#12372a" d="M 268.417969 111.992188 C 268.421875 111.996094 275.785156 117.546875 281.800781 111.40625 C 281.804688 111.414062 274.765625 105.636719 268.417969 111.992188 " fill-opacity="1" fill-rule="nonzero"/><path fill="#12372a" d="M 236.101562 105.648438 C 236.101562 105.667969 235.78125 113.570312 246.015625 114.941406 C 246.011719 114.964844 246.585938 107.1875 236.101562 105.648438 " fill-opacity="1" fill-rule="nonzero"/><path fill="#12372a" d="M 235.0625 115.195312 C 235.058594 115.222656 234.683594 124.601562 246.835938 126.195312 C 246.832031 126.222656 247.511719 116.96875 235.0625 115.195312 " fill-opacity="1" fill-rule="nonzero"/><path fill="#12372a" d="M 252.367188 105.113281 C 252.371094 105.105469 261.101562 108.296875 264.046875 100.195312 C 264.050781 100.183594 255.589844 96.738281 252.367188 105.113281 " fill-opacity="1" fill-rule="nonzero"/><g clip-path="url(#6bb757706c)"><path fill="#12372a" d="M 22.761719 132.414062 C 22.785156 132.5 22.625 146.800781 42.121094 144.421875 C 42.144531 144.519531 42.597656 129.542969 22.761719 132.414062 " fill-opacity="1" fill-rule="nonzero"/></g><path fill="#12372a" d="M 71.570312 64.453125 C 71.566406 64.476562 59.292969 76.859375 70.320312 87.847656 C 70.316406 87.871094 82.601562 76.101562 71.570312 64.453125 " fill-opacity="1" fill-rule="nonzero"/><path fill="#12372a" d="M 286.96875 54.375 C 286.96875 54.308594 274.414062 61.566406 285.324219 77.140625 C 285.324219 77.070312 297.820312 70.621094 286.96875 54.375 " fill-opacity="1" fill-rule="nonzero"/><path fill="#12372a" d="M 238.246094 17.726562 C 238.238281 17.675781 225.546875 26.226562 236.652344 41.175781 C 236.652344 41.128906 249.304688 33.367188 238.246094 17.726562 " fill-opacity="1" fill-rule="nonzero"/><path fill="#12372a" d="M 96.78125 37.789062 C 96.78125 37.789062 89.390625 44.433594 95.320312 51.386719 C 95.320312 51.386719 102.6875 45.105469 96.78125 37.789062 " fill-opacity="1" fill-rule="nonzero"/><path fill="#12372a" d="M 96.988281 31.011719 C 96.988281 31.042969 95.46875 39.480469 106.019531 40.386719 C 106.023438 40.417969 107.738281 31.988281 96.988281 31.011719 " fill-opacity="1" fill-rule="nonzero"/><path fill="#12372a" d="M 109.96875 20.5625 C 109.964844 20.613281 100.636719 34.195312 115.324219 42.953125 C 115.324219 43.003906 124.800781 29.824219 109.96875 20.5625 " fill-opacity="1" fill-rule="nonzero"/><path fill="#12372a" d="M 35.875 97.183594 C 35.890625 97.226562 37.914062 107.855469 53.257812 103.730469 C 53.273438 103.785156 51.539062 92.667969 35.875 97.183594 " fill-opacity="1" fill-rule="nonzero"/><path fill="#12372a" d="M 94.160156 115.304688 C 94.167969 115.351562 93.609375 126.699219 108.339844 126.980469 C 108.347656 127.027344 109.210938 115.554688 94.160156 115.304688 " fill-opacity="1" fill-rule="nonzero"/><path fill="#12372a" d="M 83.28125 40.65625 C 83.277344 40.707031 72.261719 54.773438 86.300781 64.46875 C 86.296875 64.519531 97.417969 50.933594 83.28125 40.65625 " fill-opacity="1" fill-rule="nonzero"/><path fill="#12372a" d="M 25.382812 151.921875 C 25.394531 151.949219 31.128906 164.160156 50.332031 156.511719 C 50.351562 156.554688 45.003906 143.53125 25.382812 151.921875 " fill-opacity="1" fill-rule="nonzero"/><path fill="#12372a" d="M 47.652344 128.039062 C 47.660156 128.132812 40.742188 143.074219 57.835938 148.285156 C 57.839844 148.375 64.972656 133.410156 47.652344 128.039062 " fill-opacity="1" fill-rule="nonzero"/><path fill="#12372a" d="M 103.796875 138.777344 C 103.800781 138.796875 106.351562 147.945312 118.621094 144.351562 C 118.625 144.375 116.390625 135.066406 103.796875 138.777344 " fill-opacity="1" fill-rule="nonzero"/><path fill="#12372a" d="M 105.835938 69.910156 C 105.832031 69.914062 96.808594 77.621094 104.914062 85.4375 C 104.910156 85.441406 113.933594 78.148438 105.835938 69.910156 " fill-opacity="1" fill-rule="nonzero"/><path fill="#12372a" d="M 97.488281 158.0625 C 97.492188 158.082031 93.875 147.386719 79.746094 152.871094 C 79.753906 152.894531 82.90625 163.066406 97.488281 158.0625 " fill-opacity="1" fill-rule="nonzero"/><path fill="#12372a" d="M 99.121094 62.449219 C 99.117188 62.449219 91.253906 68.792969 97.675781 75.5625 C 97.671875 75.5625 105.515625 69.570312 99.121094 62.449219 " fill-opacity="1" fill-rule="nonzero"/><path fill="#12372a" d="M 115.164062 52.675781 C 115.171875 52.699219 111.53125 43.75 99.546875 49.128906 C 99.550781 49.15625 102.785156 57.632812 115.164062 52.675781 " fill-opacity="1" fill-rule="nonzero"/><path fill="#12372a" d="M 121.558594 63.304688 C 121.5625 63.328125 117.925781 54.300781 105.925781 59.476562 C 105.933594 59.503906 109.164062 68.070312 121.558594 63.304688 " fill-opacity="1" fill-rule="nonzero"/><path fill="#12372a" d="M 128.25 71.234375 C 128.253906 71.246094 125.710938 64.886719 117.277344 68.316406 C 117.28125 68.324219 119.554688 74.441406 128.25 71.234375 " fill-opacity="1" fill-rule="nonzero"/><path fill="#12372a" d="M 136.210938 67.503906 C 136.207031 67.503906 142.140625 62.402344 136.320312 56.976562 C 136.316406 56.976562 130.394531 61.863281 136.210938 67.503906 " fill-opacity="1" fill-rule="nonzero"/><path fill="#12372a" d="M 145.941406 109.933594 C 145.941406 109.9375 151.859375 104.976562 146.058594 99.394531 C 146.058594 99.394531 140.144531 104.128906 145.941406 109.933594 " fill-opacity="1" fill-rule="nonzero"/><path fill="#12372a" d="M 246.550781 135.582031 C 246.550781 135.59375 247.785156 128.867188 239.050781 126.839844 C 239.050781 126.847656 237.660156 133.332031 246.550781 135.582031 " fill-opacity="1" fill-rule="nonzero"/><path fill="#12372a" d="M 135.929688 78.539062 C 135.929688 78.550781 133.394531 72.136719 124.949219 75.425781 C 124.949219 75.4375 127.222656 81.609375 135.929688 78.539062 " fill-opacity="1" fill-rule="nonzero"/><path fill="#12372a" d="M 125.101562 54.472656 C 125.101562 54.476562 130.007812 49.179688 123.976562 44.960938 C 123.972656 44.964844 119.046875 50.042969 125.101562 54.472656 " fill-opacity="1" fill-rule="nonzero"/><path fill="#12372a" d="M 131.4375 83.570312 C 131.4375 83.574219 134.960938 88.839844 142.203125 84.898438 C 142.207031 84.910156 138.925781 79.535156 131.4375 83.570312 " fill-opacity="1" fill-rule="nonzero"/><path fill="#12372a" d="M 129.574219 60.753906 C 129.570312 60.753906 135.773438 56.757812 131.492188 51.007812 C 131.492188 51.003906 125.339844 54.804688 129.574219 60.753906 " fill-opacity="1" fill-rule="nonzero"/><path fill="#12372a" d="M 83.164062 100.085938 C 83.15625 100.078125 73.324219 105.472656 77.878906 114.347656 C 77.871094 114.339844 87.59375 109.375 83.164062 100.085938 " fill-opacity="1" fill-rule="nonzero"/><path fill="#12372a" d="M 88.003906 109.519531 C 88 109.511719 78.160156 114.773438 82.714844 123.742188 C 82.707031 123.730469 92.4375 118.894531 88.003906 109.519531 " fill-opacity="1" fill-rule="nonzero"/><path fill="#12372a" d="M 89.964844 120.550781 C 89.964844 120.554688 82.898438 126.09375 88.554688 132.261719 C 88.554688 132.265625 95.59375 127.027344 89.964844 120.550781 " fill-opacity="1" fill-rule="nonzero"/><path fill="#12372a" d="M 59.425781 162.332031 C 59.429688 162.328125 54.914062 156.726562 46.59375 162.664062 C 46.597656 162.660156 50.777344 168.113281 59.425781 162.332031 " fill-opacity="1" fill-rule="nonzero"/><path fill="#12372a" d="M 81.890625 171.617188 C 81.890625 171.613281 77.351562 165.734375 68.972656 171.386719 C 68.976562 171.386719 73.183594 177.109375 81.890625 171.617188 " fill-opacity="1" fill-rule="nonzero"/><path fill="#12372a" d="M 67.402344 156.308594 C 67.402344 156.324219 71.136719 148.832031 62.394531 146.648438 C 62.398438 146.671875 58.546875 153.835938 67.402344 156.308594 " fill-opacity="1" fill-rule="nonzero"/><path fill="#12372a" d="M 76.515625 160.105469 C 76.515625 160.125 80.261719 152.660156 71.5 150.300781 C 71.5 150.320312 67.636719 157.460938 76.515625 160.105469 " fill-opacity="1" fill-rule="nonzero"/><path fill="#12372a" d="M 79.085938 138.421875 C 79.089844 138.429688 74.957031 130.445312 63.878906 136.410156 C 63.886719 136.421875 67.613281 144.070312 79.085938 138.421875 " fill-opacity="1" fill-rule="nonzero"/><path fill="#12372a" d="M 79.210938 90.136719 C 79.207031 90.132812 70.984375 95.074219 75.21875 102.367188 C 75.214844 102.359375 83.351562 97.777344 79.210938 90.136719 " fill-opacity="1" fill-rule="nonzero"/><path fill="#12372a" d="M 107.785156 164.117188 C 107.789062 164.117188 103.222656 158.449219 95.355469 163.824219 C 95.359375 163.824219 99.613281 169.347656 107.785156 164.117188 " fill-opacity="1" fill-rule="nonzero"/><path fill="#12372a" d="M 106.964844 218.097656 C 106.96875 218.097656 102.417969 212.34375 94.578125 217.515625 C 94.582031 217.511719 98.828125 223.152344 106.964844 218.097656 " fill-opacity="1" fill-rule="nonzero"/><path fill="#12372a" d="M 47.769531 119.257812 C 47.773438 119.273438 48.96875 126.613281 59.039062 123.445312 C 59.046875 123.46875 58.074219 115.980469 47.769531 119.257812 " fill-opacity="1" fill-rule="nonzero"/><path fill="#12372a" d="M 96.234375 52.636719 C 96.230469 52.625 87.390625 57.390625 91.394531 65.40625 C 91.390625 65.394531 100.128906 61.011719 96.234375 52.636719 " fill-opacity="1" fill-rule="nonzero"/><path fill="#12372a" d="M 153.660156 166.492188 C 153.660156 166.492188 146.617188 159.851562 137.765625 167.316406 C 137.765625 167.316406 144.414062 173.792969 153.660156 166.492188 " fill-opacity="1" fill-rule="nonzero"/><path fill="#12372a" d="M 109.921875 179.308594 C 109.917969 179.308594 101.917969 184.632812 107.636719 192.089844 C 107.636719 192.09375 115.589844 187.105469 109.921875 179.308594 " fill-opacity="1" fill-rule="nonzero"/><path fill="#12372a" d="M 118.753906 181.871094 C 118.753906 181.871094 112.578125 185.90625 116.988281 191.726562 C 116.984375 191.726562 123.125 187.945312 118.753906 181.871094 " fill-opacity="1" fill-rule="nonzero"/><path fill="#12372a" d="M 178.773438 127.503906 C 178.769531 127.488281 169.839844 130.839844 173.820312 139.707031 C 173.816406 139.6875 182.628906 136.671875 178.773438 127.503906 " fill-opacity="1" fill-rule="nonzero"/><path fill="#12372a" d="M 97.878906 130.492188 C 97.878906 130.503906 101.136719 137.449219 110.722656 133.25 C 110.726562 133.261719 107.742188 126.175781 97.878906 130.492188 " fill-opacity="1" fill-rule="nonzero"/><path fill="#12372a" d="M 114.308594 149.4375 C 114.3125 149.449219 118.632812 158.613281 131.046875 153.503906 C 131.050781 153.527344 127.09375 144.148438 114.308594 149.4375 " fill-opacity="1" fill-rule="nonzero"/><path fill="#12372a" d="M 125.816406 159.125 C 125.820312 159.132812 131.765625 167.617188 143.332031 161.160156 C 143.335938 161.175781 137.773438 152.453125 125.816406 159.125 " fill-opacity="1" fill-rule="nonzero"/><path fill="#12372a" d="M 154.425781 156.195312 C 154.421875 156.199219 162.484375 148.78125 153.574219 141.023438 C 153.570312 141.03125 145.503906 148.125 154.425781 156.195312 " fill-opacity="1" fill-rule="nonzero"/><path fill="#12372a" d="M 141.984375 150.363281 C 141.980469 150.375 149.09375 142.035156 139.140625 135.484375 C 139.140625 135.492188 131.972656 143.476562 141.984375 150.363281 " fill-opacity="1" fill-rule="nonzero"/><path fill="#12372a" d="M 130.679688 142.578125 C 130.679688 142.589844 137.332031 135.179688 128.648438 129.171875 C 128.644531 129.1875 121.957031 136.277344 130.679688 142.578125 " fill-opacity="1" fill-rule="nonzero"/><path fill="#12372a" d="M 119.960938 134.957031 C 119.960938 134.972656 126.175781 127.183594 117.109375 121.835938 C 117.109375 121.847656 110.832031 129.304688 119.960938 134.957031 " fill-opacity="1" fill-rule="nonzero"/><path fill="#12372a" d="M 137.507812 106.273438 C 137.507812 106.28125 145.605469 97.300781 135.03125 89.996094 C 135.03125 90.011719 126.890625 98.621094 137.507812 106.273438 " fill-opacity="1" fill-rule="nonzero"/><path fill="#12372a" d="M 124.347656 98.488281 C 124.34375 98.496094 133.050781 90.421875 123.929688 82.628906 C 123.929688 82.636719 115.230469 90.375 124.347656 98.488281 " fill-opacity="1" fill-rule="nonzero"/><path fill="#12372a" d="M 113.652344 91.132812 C 113.648438 91.132812 122.371094 84.390625 115.148438 76.558594 C 115.148438 76.558594 106.472656 83.023438 113.652344 91.132812 " fill-opacity="1" fill-rule="nonzero"/><path fill="#12372a" d="M 316.683594 170.363281 C 316.679688 170.40625 320.464844 180.863281 307.34375 181.332031 C 307.339844 181.375 303.355469 170.890625 316.683594 170.363281 " fill-opacity="1" fill-rule="nonzero"/><path fill="#12372a" d="M 328.199219 168.886719 C 328.195312 168.917969 331.8125 177.714844 320.988281 178.292969 C 320.984375 178.324219 317.214844 169.542969 328.199219 168.886719 " fill-opacity="1" fill-rule="nonzero"/><path fill="#12372a" d="M 337.496094 164.484375 C 337.496094 164.511719 343.179688 172.878906 333.917969 175.503906 C 333.914062 175.535156 328.144531 167.304688 337.496094 164.484375 " fill-opacity="1" fill-rule="nonzero"/><path fill="#12372a" d="M 262.316406 175.921875 C 262.316406 175.960938 260.628906 164.421875 275.402344 165.621094 C 275.398438 165.660156 277.398438 176.640625 262.316406 175.921875 " fill-opacity="1" fill-rule="nonzero"/><path fill="#12372a" d="M 279.933594 179.65625 C 279.925781 179.695312 276.960938 168.613281 290.796875 168.710938 C 290.792969 168.753906 294.027344 179.292969 279.933594 179.65625 " fill-opacity="1" fill-rule="nonzero"/><path fill="#12372a" d="M 295.070312 180.820312 C 295.070312 180.859375 291.113281 170.839844 303.246094 169.886719 C 303.242188 169.921875 307.394531 179.464844 295.070312 180.820312 " fill-opacity="1" fill-rule="nonzero"/><path fill="#12372a" d="M 124.65625 124.988281 C 124.660156 124.972656 134.871094 131.195312 144.136719 120.582031 C 144.140625 120.566406 134.335938 113.96875 124.65625 124.988281 " fill-opacity="1" fill-rule="nonzero"/><path fill="#12372a" d="M 110.996094 118.375 C 110.996094 118.355469 121.191406 124.308594 130.4375 113.507812 C 130.441406 113.488281 120.644531 107.15625 110.996094 118.375 " fill-opacity="1" fill-rule="nonzero"/><path fill="#12372a" d="M 69.4375 145.277344 C 69.441406 145.277344 74.742188 153.160156 86.261719 146.382812 C 86.269531 146.390625 81.300781 138.226562 69.4375 145.277344 " fill-opacity="1" fill-rule="nonzero"/><path fill="#12372a" d="M 54.65625 168.28125 C 54.660156 168.261719 61.96875 174.535156 71.921875 165.914062 C 71.925781 165.90625 64.960938 159.371094 54.65625 168.28125 " fill-opacity="1" fill-rule="nonzero"/><path fill="#12372a" d="M 23.070312 166.902344 C 23.070312 166.878906 30.292969 172.574219 40.144531 163.609375 C 40.144531 163.589844 33.25 157.617188 23.070312 166.902344 " fill-opacity="1" fill-rule="nonzero"/><path fill="#12372a" d="M 103.128906 110.277344 C 103.132812 110.265625 110.933594 114.667969 117.992188 106.257812 C 117.992188 106.246094 110.503906 101.59375 103.128906 110.277344 " fill-opacity="1" fill-rule="nonzero"/><path fill="#12372a" d="M 92.128906 101.402344 C 92.132812 101.398438 98.324219 107.617188 107.691406 100.382812 C 107.695312 100.382812 101.820312 93.894531 92.128906 101.402344 " fill-opacity="1" fill-rule="nonzero"/><path fill="#12372a" d="M 75.757812 196.820312 C 75.757812 196.847656 73.996094 206.878906 86.742188 207.3125 C 86.746094 207.339844 88.75 197.320312 75.757812 196.820312 " fill-opacity="1" fill-rule="nonzero"/><path fill="#12372a" d="M 124.195312 204.289062 C 124.195312 204.308594 126.035156 195.726562 115.402344 194.617188 C 115.40625 194.640625 113.363281 202.863281 124.195312 204.289062 " fill-opacity="1" fill-rule="nonzero"/><path fill="#12372a" d="M 81.546875 212.742188 C 81.550781 212.726562 74.824219 207.800781 67.417969 215.273438 C 67.417969 215.261719 73.789062 220.164062 81.546875 212.742188 " fill-opacity="1" fill-rule="nonzero"/><path fill="#12372a" d="M 141.023438 197.070312 C 141.019531 197.082031 144.828125 190.785156 137.175781 187.328125 C 137.175781 187.339844 133.285156 193.375 141.023438 197.070312 " fill-opacity="1" fill-rule="nonzero"/><path fill="#12372a" d="M 113.296875 206.601562 C 113.296875 206.625 115.429688 196.75 103.21875 195.632812 C 103.21875 195.65625 100.855469 205.097656 113.296875 206.601562 " fill-opacity="1" fill-rule="nonzero"/><path fill="#12372a" d="M 100.578125 207.867188 C 100.578125 207.894531 102.632812 198.300781 90.773438 197.410156 C 90.777344 197.4375 88.492188 206.597656 100.578125 207.867188 " fill-opacity="1" fill-rule="nonzero"/><path fill="#12372a" d="M 126.21875 190.519531 C 126.21875 190.535156 123.894531 198.601562 133.96875 200.421875 C 133.96875 200.441406 136.484375 192.503906 126.21875 190.519531 " fill-opacity="1" fill-rule="nonzero"/><path fill="#12372a" d="M 60.570312 123.855469 C 60.574219 123.886719 61.550781 133.9375 75.074219 130.753906 C 75.078125 130.789062 74.390625 120.503906 60.570312 123.855469 " fill-opacity="1" fill-rule="nonzero"/><path fill="#12372a" d="M 58.109375 113.703125 C 58.117188 113.734375 59.40625 123.085938 72.125 119.566406 C 72.128906 119.597656 71.113281 110.011719 58.109375 113.703125 " fill-opacity="1" fill-rule="nonzero"/><path fill="#12372a" d="M 56.671875 103.15625 C 56.671875 103.179688 57.835938 111.578125 69.261719 108.269531 C 69.265625 108.300781 68.355469 99.714844 56.671875 103.15625 " fill-opacity="1" fill-rule="nonzero"/><path fill="#12372a" d="M 60.300781 89.769531 C 60.304688 89.785156 58.125 96.796875 66.652344 97.199219 C 66.65625 97.222656 68.96875 90.257812 60.300781 89.769531 " fill-opacity="1" fill-rule="nonzero"/><path fill="#12372a" d="M 30.703125 112.210938 C 30.707031 112.21875 32.828125 118.023438 41.324219 113.902344 C 41.328125 113.910156 39.40625 107.953125 30.703125 112.210938 " fill-opacity="1" fill-rule="nonzero"/><path fill="#12372a" d="M 84.304688 93.917969 C 84.304688 93.914062 90.492188 99.992188 99.84375 92.613281 C 99.84375 92.613281 93.976562 86.253906 84.304688 93.917969 " fill-opacity="1" fill-rule="nonzero"/><path fill="#12372a" d="M 79.40625 82.25 C 79.410156 82.269531 81.972656 90.351562 93.226562 86.089844 C 93.234375 86.117188 90.945312 77.804688 79.40625 82.25 " fill-opacity="1" fill-rule="nonzero"/><path fill="#12372a" d="M 45.253906 80.253906 C 45.265625 80.324219 40.140625 92.84375 54.953125 94.378906 C 54.964844 94.453125 60.277344 81.863281 45.253906 80.253906 " fill-opacity="1" fill-rule="nonzero"/><path fill="#12372a" d="M 57.019531 66.164062 C 57.023438 66.199219 49.605469 76.261719 60.296875 81.046875 C 60.296875 81.082031 67.796875 71.269531 57.019531 66.164062 " fill-opacity="1" fill-rule="nonzero"/><path fill="#12372a" d="M 78.003906 72.445312 C 78.007812 72.460938 79.242188 79.242188 88.445312 76.476562 C 88.449219 76.496094 87.433594 69.597656 78.003906 72.445312 " fill-opacity="1" fill-rule="nonzero"/><path fill="#12372a" d="M 256.875 200.910156 C 256.871094 200.917969 259.507812 194.363281 269.886719 198.125 C 269.886719 198.132812 267.570312 204.460938 256.875 200.910156 " fill-opacity="1" fill-rule="nonzero"/><path fill="#12372a" d="M 264.839844 209.046875 C 264.839844 209.0625 264.773438 201.921875 275.625 202.578125 C 275.621094 202.59375 275.945312 209.414062 264.839844 209.046875 " fill-opacity="1" fill-rule="nonzero"/><path fill="#12372a" d="M 275.640625 210.851562 C 275.640625 210.867188 274.019531 203.765625 284.5625 202.6875 C 284.5625 202.710938 286.398438 209.46875 275.640625 210.851562 " fill-opacity="1" fill-rule="nonzero"/><path fill="#12372a" d="M 286.851562 211.84375 C 286.847656 211.863281 284.078125 204.945312 294.113281 202.617188 C 294.113281 202.640625 297.058594 209.203125 286.851562 211.84375 " fill-opacity="1" fill-rule="nonzero"/><path fill="#12372a" d="M 297.769531 210.417969 C 297.769531 210.441406 295.890625 203.402344 306.296875 202.324219 C 306.292969 202.351562 308.378906 209.027344 297.769531 210.417969 " fill-opacity="1" fill-rule="nonzero"/><path fill="#12372a" d="M 308.308594 211.359375 C 308.300781 211.390625 307.375 202.683594 320.570312 203.253906 C 320.5625 203.289062 321.804688 211.5 308.308594 211.359375 " fill-opacity="1" fill-rule="nonzero"/><path fill="#12372a" d="M 282.144531 232.996094 C 282.144531 232.960938 292.414062 227.554688 302.660156 240.253906 C 302.660156 240.222656 292.921875 245.757812 282.144531 232.996094 " fill-opacity="1" fill-rule="nonzero"/><path fill="#12372a" d="M 247.679688 198.542969 C 247.683594 198.554688 243.476562 190.535156 252.621094 184.578125 C 252.625 184.601562 256.933594 192.21875 247.679688 198.542969 " fill-opacity="1" fill-rule="nonzero"/><path fill="#12372a" d="M 239.414062 203.449219 C 239.414062 203.457031 233.261719 197.226562 240.117188 188.128906 C 240.117188 188.136719 246.277344 194.003906 239.414062 203.449219 " fill-opacity="1" fill-rule="nonzero"/><path fill="#12372a" d="M 278.621094 197.132812 C 278.625 197.109375 267.050781 197.210938 267.660156 185.367188 C 267.664062 185.339844 278.992188 185.074219 278.621094 197.132812 " fill-opacity="1" fill-rule="nonzero"/><path fill="#12372a" d="M 293.074219 198.316406 C 293.082031 198.292969 281.535156 198.183594 282.15625 186.445312 C 282.160156 186.417969 293.460938 186.378906 293.074219 198.316406 " fill-opacity="1" fill-rule="nonzero"/><g clip-path="url(#c84a006ca9)"><path fill="#12372a" d="M 351.996094 166.800781 C 351.992188 166.839844 355.476562 176.605469 342.257812 175.316406 C 342.253906 175.359375 338.574219 165.464844 351.996094 166.800781 " fill-opacity="1" fill-rule="nonzero"/></g><path fill="#12372a" d="M 349.253906 149.003906 C 349.242188 149.070312 350.996094 162.042969 332.996094 157.25 C 332.976562 157.320312 330.945312 143.871094 349.253906 149.003906 " fill-opacity="1" fill-rule="nonzero"/><path fill="#12372a" d="M 304.382812 197.558594 C 304.386719 197.546875 295.570312 197.300781 296.050781 188.410156 C 296.050781 188.390625 304.675781 188.503906 304.382812 197.558594 " fill-opacity="1" fill-rule="nonzero"/><path fill="#12372a" d="M 318.722656 194.703125 C 318.722656 194.679688 309.765625 196.300781 307.632812 187.378906 C 307.632812 187.351562 316.347656 185.625 318.722656 194.703125 " fill-opacity="1" fill-rule="nonzero"/><path fill="#12372a" d="M 329.808594 193.074219 C 329.8125 193.050781 320.882812 194.488281 318.753906 185.605469 C 318.757812 185.582031 327.4375 184.042969 329.808594 193.074219 " fill-opacity="1" fill-rule="nonzero"/><path fill="#12372a" d="M 341.5 187.707031 C 341.503906 187.679688 333.972656 191.785156 328.175781 184.226562 C 328.175781 184.203125 335.429688 179.984375 341.5 187.707031 " fill-opacity="1" fill-rule="nonzero"/><path fill="#12372a" d="M 292.160156 226.054688 C 292.164062 226.039062 282.882812 227.464844 281.667969 218.449219 C 281.667969 218.429688 290.714844 216.890625 292.160156 226.054688 " fill-opacity="1" fill-rule="nonzero"/><path fill="#12372a" d="M 282.726562 241.117188 C 282.730469 241.101562 273.15625 241.496094 273.4375 232.503906 C 273.4375 232.488281 282.800781 231.96875 282.726562 241.117188 " fill-opacity="1" fill-rule="nonzero"/><path fill="#12372a" d="M 268.628906 238.320312 C 268.628906 238.316406 259.222656 235.683594 263.238281 227.59375 C 263.238281 227.585938 272.515625 230.03125 268.628906 238.320312 " fill-opacity="1" fill-rule="nonzero"/><path fill="#12372a" d="M 256.507812 233.296875 C 256.511719 233.304688 248.472656 228.035156 255.558594 221.828125 C 255.558594 221.835938 263.566406 226.855469 256.507812 233.296875 " fill-opacity="1" fill-rule="nonzero"/><path fill="#12372a" d="M 244.195312 227.785156 C 244.195312 227.800781 239.816406 219.878906 249.691406 217.679688 C 249.691406 217.695312 254.191406 225.308594 244.195312 227.785156 " fill-opacity="1" fill-rule="nonzero"/><path fill="#12372a" d="M 281.28125 224.957031 C 281.28125 224.933594 271.988281 226.484375 270.761719 217.421875 C 270.765625 217.40625 279.824219 215.742188 281.28125 224.957031 " fill-opacity="1" fill-rule="nonzero"/><path fill="#12372a" d="M 303.640625 224.625 C 303.644531 224.601562 294.382812 225.882812 293.171875 216.917969 C 293.175781 216.894531 302.203125 215.511719 303.640625 224.625 " fill-opacity="1" fill-rule="nonzero"/><path fill="#12372a" d="M 316.199219 219.394531 C 316.199219 219.371094 308.035156 223.394531 302.9375 215.707031 C 302.9375 215.6875 310.816406 211.566406 316.199219 219.394531 " fill-opacity="1" fill-rule="nonzero"/><path fill="#12372a" d="M 349.195312 182.265625 C 349.195312 182.25 343.613281 185.917969 338.308594 180.21875 C 338.308594 180.203125 343.660156 176.433594 349.195312 182.265625 " fill-opacity="1" fill-rule="nonzero"/><path fill="#12372a" d="M 26.90625 174.417969 C 26.910156 174.386719 35.964844 183.996094 51.453125 172.476562 C 51.460938 172.457031 42.828125 162.296875 26.90625 174.417969 " fill-opacity="1" fill-rule="nonzero"/><path fill="#12372a" d="M 53.433594 205.957031 C 53.4375 205.941406 60.941406 215.046875 74.410156 206.105469 C 74.414062 206.09375 67.320312 196.671875 53.433594 205.957031 " fill-opacity="1" fill-rule="nonzero"/><path fill="#12372a" d="M 69.617188 223.21875 C 69.617188 223.195312 78.210938 231.234375 90.011719 221.695312 C 90.015625 221.675781 81.839844 213.398438 69.617188 223.21875 " fill-opacity="1" fill-rule="nonzero"/><path fill="#12372a" d="M 63.472656 191.277344 C 63.46875 191.246094 74.421875 191.785156 77.269531 180.648438 C 77.265625 180.621094 66.613281 179.890625 63.472656 191.277344 " fill-opacity="1" fill-rule="nonzero"/><path fill="#12372a" d="M 94.503906 192 C 94.5 191.988281 105.335938 188.085938 101.90625 177.652344 C 101.902344 177.640625 91.238281 181.300781 94.503906 192 " fill-opacity="1" fill-rule="nonzero"/><path fill="#12372a" d="M 78.832031 194.34375 C 78.824219 194.316406 91.425781 192.488281 89.460938 180.558594 C 89.453125 180.53125 77.097656 182.175781 78.832031 194.34375 " fill-opacity="1" fill-rule="nonzero"/><path fill="#12372a" d="M 51.574219 185.53125 C 51.574219 185.503906 59.902344 189.160156 66.558594 180.046875 C 66.558594 180.023438 58.542969 176.183594 51.574219 185.53125 " fill-opacity="1" fill-rule="nonzero"/><path fill="#12372a" d="M 43.972656 180.941406 C 43.972656 180.925781 50.132812 184.378906 56.195312 177.394531 C 56.195312 177.382812 50.292969 173.785156 43.972656 180.941406 " fill-opacity="1" fill-rule="nonzero"/><path fill="#12372a" d="M 83.921875 229.742188 C 83.921875 229.730469 90.136719 233.824219 96.25 227.1875 C 96.25 227.183594 90.308594 222.976562 83.921875 229.742188 " fill-opacity="1" fill-rule="nonzero"/><path fill="#12372a" d="M 123.472656 232.78125 C 123.464844 232.777344 133.675781 227.882812 128.335938 217.921875 C 128.335938 217.914062 118.246094 222.523438 123.472656 232.78125 " fill-opacity="1" fill-rule="nonzero"/><path fill="#12372a" d="M 139.382812 227.734375 C 139.378906 227.738281 149.171875 220.109375 139.070312 211.855469 C 139.066406 211.863281 129.28125 219.144531 139.382812 227.734375 " fill-opacity="1" fill-rule="nonzero"/><path fill="#12372a" d="M 108.515625 234.054688 C 108.515625 234.042969 118.753906 232.871094 118.289062 222.675781 C 118.289062 222.660156 108.269531 223.625 108.515625 234.054688 " fill-opacity="1" fill-rule="nonzero"/><path fill="#12372a" d="M 98.175781 234.167969 C 98.175781 234.15625 106.386719 233.871094 106.953125 225.660156 C 106.953125 225.652344 98.941406 225.773438 98.175781 234.167969 " fill-opacity="1" fill-rule="nonzero"/></svg>